<mxfile host="Electron" agent="Mozilla/5.0 (Windows NT 10.0; Win64; x64) AppleWebKit/537.36 (KHTML, like Gecko) draw.io/26.0.16 Chrome/132.0.6834.196 Electron/34.2.0 Safari/537.36" version="26.0.16">
  <diagram name="Page-1" id="2cc2dc42-3aac-f2a9-1cec-7a8b7cbee084">
    <mxGraphModel dx="2345" dy="1260" grid="1" gridSize="10" guides="1" tooltips="1" connect="1" arrows="1" fold="1" page="1" pageScale="1" pageWidth="1100" pageHeight="850" background="none" math="0" shadow="0">
      <root>
        <mxCell id="0" />
        <mxCell id="1" parent="0" />
        <mxCell id="7026571954dc6520-1" value="" style="strokeWidth=1;shadow=0;dashed=0;align=center;html=1;shape=mxgraph.mockup.containers.browserWindow;rSize=0;strokeColor=#666666;mainText=,;recursiveResize=0;rounded=0;labelBackgroundColor=none;fontFamily=Verdana;fontSize=12" parent="1" vertex="1">
          <mxGeometry x="30" y="20" width="1060" height="820" as="geometry" />
        </mxCell>
        <mxCell id="7026571954dc6520-2" value="Page 1" style="strokeWidth=1;shadow=0;dashed=0;align=center;html=1;shape=mxgraph.mockup.containers.anchor;fontSize=17;fontColor=#666666;align=left;" parent="7026571954dc6520-1" vertex="1">
          <mxGeometry x="60" y="12" width="110" height="26" as="geometry" />
        </mxCell>
        <mxCell id="7026571954dc6520-3" value="https://www.default.com" style="strokeWidth=1;shadow=0;dashed=0;align=center;html=1;shape=mxgraph.mockup.containers.anchor;rSize=0;fontSize=17;fontColor=#666666;align=left;" parent="7026571954dc6520-1" vertex="1">
          <mxGeometry x="130" y="60" width="250" height="26" as="geometry" />
        </mxCell>
        <mxCell id="jUsaBhOjdQPErfVnAwcS-1" value="&lt;h1 style=&quot;margin-top: 0px;&quot;&gt;Gladiator&lt;/h1&gt;" style="text;html=1;whiteSpace=wrap;overflow=hidden;rounded=0;" parent="7026571954dc6520-1" vertex="1">
          <mxGeometry x="25" y="120" width="180" height="40" as="geometry" />
        </mxCell>
        <mxCell id="7026571954dc6520-14" value="Search" style="strokeWidth=1;shadow=0;dashed=0;align=center;html=1;shape=mxgraph.mockup.forms.searchBox;strokeColor=#999999;mainText=;strokeColor2=#008cff;fontColor=#666666;fontSize=17;align=left;spacingLeft=3;rounded=0;labelBackgroundColor=none;" parent="7026571954dc6520-1" vertex="1">
          <mxGeometry x="800" y="125" width="220" height="30" as="geometry" />
        </mxCell>
        <mxCell id="jUsaBhOjdQPErfVnAwcS-2" value="" style="verticalLabelPosition=bottom;shadow=0;dashed=0;align=center;html=1;verticalAlign=top;strokeWidth=1;shape=mxgraph.mockup.markup.line;strokeColor=#999999;rounded=0;labelBackgroundColor=none;fillColor=#ffffff;fontFamily=Verdana;fontSize=12;fontColor=#000000;" parent="7026571954dc6520-1" vertex="1">
          <mxGeometry y="160" width="1060" height="20" as="geometry" />
        </mxCell>
        <mxCell id="jUsaBhOjdQPErfVnAwcS-3" value="" style="verticalLabelPosition=bottom;shadow=0;dashed=0;align=center;html=1;verticalAlign=top;strokeWidth=1;shape=mxgraph.mockup.graphics.simpleIcon;strokeColor=#999999;fillColor=#797979;rounded=0;labelBackgroundColor=none;fontFamily=Verdana;fontSize=12;fontColor=#000000;" parent="7026571954dc6520-1" vertex="1">
          <mxGeometry y="170" width="1060" height="650" as="geometry" />
        </mxCell>
        <mxCell id="q6xqji4yMwHmY8erQ9P1-3" value="" style="rounded=0;whiteSpace=wrap;html=1;" vertex="1" parent="7026571954dc6520-1">
          <mxGeometry x="230" y="220" width="600" height="600" as="geometry" />
        </mxCell>
        <mxCell id="q6xqji4yMwHmY8erQ9P1-4" value="" style="verticalLabelPosition=bottom;shadow=0;dashed=0;align=center;html=1;verticalAlign=top;strokeWidth=1;shape=mxgraph.mockup.graphics.simpleIcon;strokeColor=#999999;fillColor=#ffffff;rounded=0;labelBackgroundColor=none;fontFamily=Verdana;fontSize=12;fontColor=#000000;" vertex="1" parent="7026571954dc6520-1">
          <mxGeometry x="620" y="305" width="180" height="225" as="geometry" />
        </mxCell>
        <mxCell id="q6xqji4yMwHmY8erQ9P1-5" value="&lt;h1 style=&quot;margin-top: 0px;&quot;&gt;&lt;font style=&quot;font-size: 36px;&quot;&gt;Gladiator (2000)&lt;/font&gt;&lt;/h1&gt;" style="text;html=1;whiteSpace=wrap;overflow=hidden;rounded=0;" vertex="1" parent="7026571954dc6520-1">
          <mxGeometry x="260" y="240" width="320" height="50" as="geometry" />
        </mxCell>
        <mxCell id="q6xqji4yMwHmY8erQ9P1-6" value="&lt;font style=&quot;font-size: 14px; color: rgb(0, 0, 255);&quot;&gt;&lt;u&gt;&lt;b&gt;Gladiator&lt;/b&gt;&lt;/u&gt;&lt;/font&gt;" style="html=1;shadow=0;dashed=0;shape=mxgraph.bootstrap.rrect;rSize=5;strokeColor=none;strokeWidth=1;fillColor=none;fontColor=#0085FC;whiteSpace=wrap;align=center;verticalAlign=middle;spacingLeft=0;fontStyle=0;fontSize=16;spacing=5;" vertex="1" parent="7026571954dc6520-1">
          <mxGeometry x="260" y="300" width="80" height="40" as="geometry" />
        </mxCell>
        <mxCell id="q6xqji4yMwHmY8erQ9P1-7" value="&lt;font style=&quot;font-size: 14px;&quot;&gt;&lt;b&gt;(2000)&lt;/b&gt;&lt;/font&gt;" style="text;html=1;align=left;verticalAlign=middle;whiteSpace=wrap;rounded=0;" vertex="1" parent="7026571954dc6520-1">
          <mxGeometry x="330" y="305" width="60" height="30" as="geometry" />
        </mxCell>
        <mxCell id="q6xqji4yMwHmY8erQ9P1-18" value="&lt;b&gt;&lt;font style=&quot;font-size: 18px;&quot;&gt;&amp;nbsp;Contents&lt;/font&gt;&lt;/b&gt;" style="rounded=0;whiteSpace=wrap;html=1;align=left;" vertex="1" parent="7026571954dc6520-1">
          <mxGeometry x="260" y="360" width="170" height="40" as="geometry" />
        </mxCell>
        <mxCell id="q6xqji4yMwHmY8erQ9P1-19" value="&lt;h1 style=&quot;margin-top: 0px;&quot;&gt;Synopsis&lt;/h1&gt;&lt;p&gt;Lorem ipsum dolor sit amet, consectetur adipisicing elit, sed do eiusmod tempor incididunt ut labore et dolore magna aliqua.&lt;/p&gt;" style="text;html=1;whiteSpace=wrap;overflow=hidden;rounded=0;" vertex="1" parent="7026571954dc6520-1">
          <mxGeometry x="260" y="590" width="320" height="100" as="geometry" />
        </mxCell>
        <mxCell id="q6xqji4yMwHmY8erQ9P1-20" value="" style="verticalLabelPosition=bottom;shadow=0;dashed=0;align=center;html=1;verticalAlign=top;strokeWidth=1;shape=mxgraph.mockup.markup.line;strokeColor=#999999;rounded=0;labelBackgroundColor=none;fillColor=#ffffff;fontFamily=Verdana;fontSize=12;fontColor=#000000;" vertex="1" parent="7026571954dc6520-1">
          <mxGeometry x="260" y="620" width="540" height="20" as="geometry" />
        </mxCell>
        <mxCell id="q6xqji4yMwHmY8erQ9P1-21" value="&lt;h1 style=&quot;margin-top: 0px;&quot;&gt;Plot&lt;/h1&gt;&lt;p&gt;Lorem ipsum dolor sit amet, consectetur adipisicing elit, sed do eiusmod tempor incididunt ut labore et dolore magna aliqua.&lt;/p&gt;" style="text;html=1;whiteSpace=wrap;overflow=hidden;rounded=0;" vertex="1" parent="7026571954dc6520-1">
          <mxGeometry x="260" y="710" width="540" height="110" as="geometry" />
        </mxCell>
        <mxCell id="q6xqji4yMwHmY8erQ9P1-22" value="" style="verticalLabelPosition=bottom;shadow=0;dashed=0;align=center;html=1;verticalAlign=top;strokeWidth=1;shape=mxgraph.mockup.markup.line;strokeColor=#999999;rounded=0;labelBackgroundColor=none;fillColor=#ffffff;fontFamily=Verdana;fontSize=12;fontColor=#000000;" vertex="1" parent="7026571954dc6520-1">
          <mxGeometry x="260" y="740" width="540" height="20" as="geometry" />
        </mxCell>
        <mxCell id="q6xqji4yMwHmY8erQ9P1-1" value="" style="verticalLabelPosition=bottom;shadow=0;dashed=0;align=center;html=1;verticalAlign=top;strokeWidth=1;shape=mxgraph.mockup.markup.line;strokeColor=#000000;rounded=0;labelBackgroundColor=none;fillColor=#ffffff;fontFamily=Verdana;fontSize=12;fontColor=#000000;" vertex="1" parent="1">
          <mxGeometry x="10" y="830" width="1130" height="20" as="geometry" />
        </mxCell>
        <mxCell id="q6xqji4yMwHmY8erQ9P1-2" value="Scrolling" style="text;html=1;align=center;verticalAlign=middle;whiteSpace=wrap;rounded=0;" vertex="1" parent="1">
          <mxGeometry x="1140" y="820" width="60" height="30" as="geometry" />
        </mxCell>
        <mxCell id="q6xqji4yMwHmY8erQ9P1-8" value="" style="swimlane;shape=rect;strokeColor=#000000;fillColor=#ffffff;fontColor=#000000;fontStyle=0;childLayout=stackLayout;horizontal=1;startSize=0;horizontalStack=0;resizeParent=1;resizeParentMax=0;resizeLast=0;collapsible=0;marginBottom=0;whiteSpace=wrap;html=1;shadow=0;" vertex="1" parent="1">
          <mxGeometry x="290" y="420" width="170" height="168" as="geometry" />
        </mxCell>
        <mxCell id="q6xqji4yMwHmY8erQ9P1-9" value="1. Synopsis" style="text;strokeColor=none;align=left;verticalAlign=middle;spacingLeft=12;spacingRight=10;overflow=hidden;points=[[0,0.5],[1,0.5]];portConstraint=eastwest;rotatable=0;whiteSpace=wrap;html=1;shape=mxgraph.bootstrap.topButton;rSize=3;fillColor=none;fontSize=15;fontColor=inherit;" vertex="1" parent="q6xqji4yMwHmY8erQ9P1-8">
          <mxGeometry width="170" height="42" as="geometry" />
        </mxCell>
        <mxCell id="q6xqji4yMwHmY8erQ9P1-10" value="2. Plot" style="text;strokeColor=none;align=left;verticalAlign=middle;spacingLeft=12;spacingRight=10;overflow=hidden;points=[[0,0.5],[1,0.5]];portConstraint=eastwest;rotatable=0;whiteSpace=wrap;html=1;shape=mxgraph.bootstrap.topButton;rSize=3;fillColor=none;fontSize=15;fontColor=inherit;" vertex="1" parent="q6xqji4yMwHmY8erQ9P1-8">
          <mxGeometry y="42" width="170" height="42" as="geometry" />
        </mxCell>
        <mxCell id="q6xqji4yMwHmY8erQ9P1-11" value="3. Gallery" style="text;strokeColor=none;align=left;verticalAlign=middle;spacingLeft=12;spacingRight=10;overflow=hidden;points=[[0,0.5],[1,0.5]];portConstraint=eastwest;rotatable=0;whiteSpace=wrap;html=1;shape=mxgraph.bootstrap.topButton;rSize=3;fillColor=none;fontSize=15;fontColor=inherit;" vertex="1" parent="q6xqji4yMwHmY8erQ9P1-8">
          <mxGeometry y="84" width="170" height="42" as="geometry" />
        </mxCell>
        <mxCell id="q6xqji4yMwHmY8erQ9P1-12" value="4. Trivia" style="text;strokeColor=none;align=left;verticalAlign=middle;spacingLeft=12;spacingRight=10;overflow=hidden;points=[[0,0.5],[1,0.5]];portConstraint=eastwest;rotatable=0;whiteSpace=wrap;html=1;shape=mxgraph.bootstrap.topButton;rSize=3;fillColor=none;fontSize=15;fontColor=inherit;" vertex="1" parent="q6xqji4yMwHmY8erQ9P1-8">
          <mxGeometry y="126" width="170" height="42" as="geometry" />
        </mxCell>
        <mxCell id="q6xqji4yMwHmY8erQ9P1-24" value="" style="rounded=0;whiteSpace=wrap;html=1;" vertex="1" parent="1">
          <mxGeometry x="260" y="840" width="600" height="860" as="geometry" />
        </mxCell>
        <mxCell id="q6xqji4yMwHmY8erQ9P1-25" value="&lt;div&gt;Lorem ipsum dolor sit amet, id summo maiestatis eam, ferri nostro placerat in quo. Id vim rebum graeci, elit eligendi appellantur ad vix, eum ea delectus comprehensam. Sit erat possim ei, ea clita assentior mei. Mel exerci facilisis ad, no duis abhorreant scribentur est. Sit id movet euripidis, ubique singulis cu eum.&lt;/div&gt;&lt;div&gt;&lt;br&gt;&lt;/div&gt;&lt;div&gt;Ne est discere suscipit percipitur, ne sit dolore verterem laboramus, et errem nostro vis. Et munere officiis has, diam numquam eos in. Qui augue labitur id, detraxit referrentur deterruisset mea et. Id mei integre suavitate, quot corrumpit eu qui, eros aeterno accusam pri eu.&lt;/div&gt;" style="text;html=1;align=left;verticalAlign=middle;whiteSpace=wrap;rounded=0;" vertex="1" parent="1">
          <mxGeometry x="290" y="840" width="540" height="160" as="geometry" />
        </mxCell>
        <mxCell id="q6xqji4yMwHmY8erQ9P1-26" value="&lt;div&gt;Lorem ipsum dolor sit amet, id summo maiestatis eam, ferri nostro placerat in quo. Id vim rebum graeci, elit eligendi appellantur ad vix, eum ea delectus comprehensam. Sit erat possim ei, ea clita assentior mei. Mel exerci facilisis ad, no duis abhorreant scribentur est. Sit id movet euripidis, ubique singulis cu eum.&lt;/div&gt;&lt;div&gt;&lt;br&gt;&lt;/div&gt;&lt;div&gt;Ne est discere suscipit percipitur, ne sit dolore verterem laboramus, et errem nostro vis. Et munere officiis has, diam numquam eos in. Qui augue labitur id, detraxit referrentur deterruisset mea et. Id mei integre suavitate, quot corrumpit eu qui, eros aeterno accusam pri eu.&lt;/div&gt;" style="text;html=1;align=left;verticalAlign=middle;whiteSpace=wrap;rounded=0;" vertex="1" parent="1">
          <mxGeometry x="290" y="990" width="540" height="160" as="geometry" />
        </mxCell>
        <mxCell id="q6xqji4yMwHmY8erQ9P1-27" value="&lt;h1 style=&quot;margin-top: 0px;&quot;&gt;Gallery&lt;/h1&gt;" style="text;html=1;whiteSpace=wrap;overflow=hidden;rounded=0;" vertex="1" parent="1">
          <mxGeometry x="290" y="1160" width="180" height="40" as="geometry" />
        </mxCell>
        <mxCell id="q6xqji4yMwHmY8erQ9P1-28" value="" style="verticalLabelPosition=bottom;shadow=0;dashed=0;align=center;html=1;verticalAlign=top;strokeWidth=1;shape=mxgraph.mockup.graphics.simpleIcon;strokeColor=#999999;fillColor=#ffffff;" vertex="1" parent="1">
          <mxGeometry x="290" y="1220" width="50" height="50" as="geometry" />
        </mxCell>
        <mxCell id="q6xqji4yMwHmY8erQ9P1-29" value="" style="verticalLabelPosition=bottom;shadow=0;dashed=0;align=center;html=1;verticalAlign=top;strokeWidth=1;shape=mxgraph.mockup.graphics.simpleIcon;strokeColor=#999999;fillColor=#ffffff;" vertex="1" parent="1">
          <mxGeometry x="365" y="1220" width="50" height="50" as="geometry" />
        </mxCell>
        <mxCell id="q6xqji4yMwHmY8erQ9P1-30" value="" style="verticalLabelPosition=bottom;shadow=0;dashed=0;align=center;html=1;verticalAlign=top;strokeWidth=1;shape=mxgraph.mockup.graphics.simpleIcon;strokeColor=#999999;fillColor=#ffffff;" vertex="1" parent="1">
          <mxGeometry x="440" y="1220" width="50" height="50" as="geometry" />
        </mxCell>
        <mxCell id="q6xqji4yMwHmY8erQ9P1-31" value="" style="verticalLabelPosition=bottom;shadow=0;dashed=0;align=center;html=1;verticalAlign=top;strokeWidth=1;shape=mxgraph.mockup.graphics.simpleIcon;strokeColor=#999999;fillColor=#ffffff;" vertex="1" parent="1">
          <mxGeometry x="290" y="1295" width="50" height="50" as="geometry" />
        </mxCell>
        <mxCell id="q6xqji4yMwHmY8erQ9P1-32" value="" style="verticalLabelPosition=bottom;shadow=0;dashed=0;align=center;html=1;verticalAlign=top;strokeWidth=1;shape=mxgraph.mockup.graphics.simpleIcon;strokeColor=#999999;fillColor=#ffffff;" vertex="1" parent="1">
          <mxGeometry x="365" y="1295" width="50" height="50" as="geometry" />
        </mxCell>
        <mxCell id="q6xqji4yMwHmY8erQ9P1-33" value="" style="verticalLabelPosition=bottom;shadow=0;dashed=0;align=center;html=1;verticalAlign=top;strokeWidth=1;shape=mxgraph.mockup.graphics.simpleIcon;strokeColor=#999999;fillColor=#ffffff;" vertex="1" parent="1">
          <mxGeometry x="440" y="1295" width="50" height="50" as="geometry" />
        </mxCell>
        <mxCell id="q6xqji4yMwHmY8erQ9P1-34" value="" style="verticalLabelPosition=bottom;shadow=0;dashed=0;align=center;html=1;verticalAlign=top;strokeWidth=1;shape=mxgraph.mockup.graphics.simpleIcon;strokeColor=#999999;fillColor=#ffffff;" vertex="1" parent="1">
          <mxGeometry x="290" y="1370" width="50" height="50" as="geometry" />
        </mxCell>
        <mxCell id="q6xqji4yMwHmY8erQ9P1-35" value="" style="verticalLabelPosition=bottom;shadow=0;dashed=0;align=center;html=1;verticalAlign=top;strokeWidth=1;shape=mxgraph.mockup.graphics.simpleIcon;strokeColor=#999999;fillColor=#ffffff;" vertex="1" parent="1">
          <mxGeometry x="365" y="1370" width="50" height="50" as="geometry" />
        </mxCell>
        <mxCell id="q6xqji4yMwHmY8erQ9P1-36" value="" style="verticalLabelPosition=bottom;shadow=0;dashed=0;align=center;html=1;verticalAlign=top;strokeWidth=1;shape=mxgraph.mockup.graphics.simpleIcon;strokeColor=#999999;fillColor=#ffffff;" vertex="1" parent="1">
          <mxGeometry x="440" y="1370" width="50" height="50" as="geometry" />
        </mxCell>
        <mxCell id="q6xqji4yMwHmY8erQ9P1-37" value="" style="verticalLabelPosition=bottom;shadow=0;dashed=0;align=center;html=1;verticalAlign=top;strokeWidth=1;shape=mxgraph.mockup.markup.line;strokeColor=#999999;rounded=0;labelBackgroundColor=none;fillColor=#ffffff;fontFamily=Verdana;fontSize=12;fontColor=#000000;" vertex="1" parent="1">
          <mxGeometry x="290" y="1190" width="530" height="20" as="geometry" />
        </mxCell>
        <mxCell id="q6xqji4yMwHmY8erQ9P1-39" value="&lt;h1 style=&quot;margin-top: 0px;&quot;&gt;Trivia&lt;/h1&gt;" style="text;html=1;whiteSpace=wrap;overflow=hidden;rounded=0;" vertex="1" parent="1">
          <mxGeometry x="290" y="1460" width="180" height="44" as="geometry" />
        </mxCell>
        <mxCell id="q6xqji4yMwHmY8erQ9P1-41" value="" style="verticalLabelPosition=bottom;shadow=0;dashed=0;align=center;html=1;verticalAlign=top;strokeWidth=1;shape=mxgraph.mockup.markup.line;strokeColor=#999999;rounded=0;labelBackgroundColor=none;fillColor=#ffffff;fontFamily=Verdana;fontSize=12;fontColor=#000000;" vertex="1" parent="1">
          <mxGeometry x="290" y="1504" width="530" height="20" as="geometry" />
        </mxCell>
        <mxCell id="q6xqji4yMwHmY8erQ9P1-42" value="&lt;ol data-end=&quot;592&quot; data-start=&quot;100&quot;&gt;&lt;li data-end=&quot;176&quot; data-start=&quot;100&quot;&gt;&lt;p data-end=&quot;176&quot; data-start=&quot;103&quot;&gt;Lorem ipsum dolor sit amet, consectetur adipiscing elit. Sed non risus.&lt;/p&gt;&lt;/li&gt;&lt;li data-end=&quot;266&quot; data-start=&quot;177&quot;&gt;&lt;p data-end=&quot;266&quot; data-start=&quot;180&quot;&gt;Suspendisse lectus tortor, dignissim sit amet, adipiscing nec, ultricies sed, dolor.&lt;/p&gt;&lt;/li&gt;&lt;li data-end=&quot;349&quot; data-start=&quot;267&quot;&gt;&lt;p data-end=&quot;349&quot; data-start=&quot;270&quot;&gt;Cras elementum ultrices diam. Maecenas ligula massa, varius a, semper congue.&lt;/p&gt;&lt;/li&gt;&lt;li data-end=&quot;420&quot; data-start=&quot;350&quot;&gt;&lt;p data-end=&quot;420&quot; data-start=&quot;353&quot;&gt;Proin porttitor, orci nec nonummy molestie, enim est eleifend mi.&lt;/p&gt;&lt;/li&gt;&lt;li data-end=&quot;513&quot; data-start=&quot;421&quot;&gt;&lt;p data-end=&quot;513&quot; data-start=&quot;424&quot;&gt;Fusce suscipit varius mi. Cum sociis natoque penatibus et magnis dis parturient montes.&lt;/p&gt;&lt;/li&gt;&lt;li data-end=&quot;592&quot; data-start=&quot;514&quot;&gt;&lt;p data-end=&quot;592&quot; data-start=&quot;517&quot;&gt;Pellentesque habitant morbi tristique senectus et netus et malesuada fames.&lt;/p&gt;&lt;/li&gt;&lt;/ol&gt;" style="text;html=1;align=left;verticalAlign=middle;whiteSpace=wrap;rounded=0;" vertex="1" parent="1">
          <mxGeometry x="270" y="1520" width="550" height="180" as="geometry" />
        </mxCell>
      </root>
    </mxGraphModel>
  </diagram>
</mxfile>
